<svg width="32" height="22" viewBox="0 0 32 22" fill="none" xmlns="http://www.w3.org/2000/svg">
<path d="M31.3307 3.38045C31.1499 2.72672 30.7934 2.13007 30.2968 1.65024C29.8003 1.17041 29.1811 0.824237 28.5013 0.646399C26.0067 -1.71659e-07 16 0 16 0C16 0 5.99333 -1.71659e-07 3.49733 0.646399C2.81788 0.824554 2.19906 1.17085 1.70277 1.65064C1.20648 2.13045 0.850122 2.72694 0.669333 3.38045C0 5.79194 0 10.8223 0 10.8223C0 10.8223 0 15.8526 0.669333 18.2641C0.850115 18.9179 1.20663 19.5145 1.70319 19.9943C2.19974 20.4741 2.8189 20.8203 3.49867 20.9982C5.99333 21.6445 16 21.6445 16 21.6445C16 21.6445 26.0067 21.6445 28.5027 20.9982C29.1825 20.8205 29.8017 20.4743 30.2983 19.9945C30.7949 19.5146 31.1513 18.9179 31.332 18.2641C32 15.8526 32 10.8223 32 10.8223C32 10.8223 32 5.79194 31.3307 3.38045ZM12.7267 15.3892V6.25533L21.0907 10.8223L12.7267 15.3892Z" fill="white"/>
</svg>
