<svg width="18" height="10" viewBox="0 0 18 10" fill="none" xmlns="http://www.w3.org/2000/svg">
<path fill-rule="evenodd" clip-rule="evenodd" d="M11.1633 0.379307C11.5061 -0.0537099 12.1351 -0.126841 12.5681 0.215964L17.6207 4.21596C17.8603 4.40563 18 4.69444 18 5.00001C18 5.30558 17.8603 5.59439 17.6207 5.78406L12.5681 9.78406C12.1351 10.1269 11.5061 10.0537 11.1633 9.62071C10.8205 9.1877 10.8936 8.55877 11.3267 8.21596L14.1258 6.00001H1C0.447715 6.00001 0 5.55229 0 5.00001C0 4.44772 0.447715 4.00001 1 4.00001H14.1258L11.3267 1.78406C10.8936 1.44125 10.8205 0.812323 11.1633 0.379307Z" fill="#331800"/>
</svg>
