<svg width="20" height="17" viewBox="0 0 20 17" fill="none" xmlns="http://www.w3.org/2000/svg">
<path d="M17.4609 6.01929C17.3623 6.16507 17.3039 6.3343 17.2916 6.50989C17.2793 6.68547 17.3135 6.86119 17.3909 7.01929C17.6391 7.59856 17.8138 8.20662 17.9109 8.82929C18.1683 10.4394 17.9276 12.0898 17.2209 13.5593C17.1351 13.7205 17.0068 13.8551 16.8499 13.9485C16.693 14.0419 16.5135 14.0906 16.3309 14.0893H3.68092C3.49729 14.0897 3.3171 14.0395 3.16011 13.9442C3.00312 13.849 2.87539 13.7123 2.79092 13.5493C2.1508 12.2507 1.87506 10.8028 1.9931 9.35986C2.11114 7.91691 2.61854 6.53305 3.4612 5.35579C4.30386 4.17853 5.4502 3.252 6.778 2.67498C8.10581 2.09797 9.56531 1.89209 11.0009 2.07929C11.7273 2.16467 12.4378 2.35323 13.1109 2.63929C13.269 2.71666 13.4447 2.75093 13.6203 2.73864C13.7959 2.72635 13.9651 2.66793 14.1109 2.56929C14.2628 2.46923 14.3845 2.32965 14.463 2.16557C14.5414 2.00148 14.5736 1.81911 14.5561 1.63808C14.5387 1.45704 14.4721 1.28421 14.3637 1.13817C14.2553 0.992135 14.1091 0.878429 13.9409 0.809291C12.0091 -0.0190522 9.86542 -0.217622 7.81433 0.241789C5.76324 0.701199 3.90906 1.79523 2.51517 3.36847C1.12129 4.94172 0.258569 6.91418 0.0495679 9.00567C-0.159433 11.0972 0.295911 13.2013 1.35092 15.0193C1.52543 15.3216 1.77601 15.5729 2.07775 15.7483C2.37949 15.9238 2.72189 16.0172 3.07092 16.0193H16.9209C17.2733 16.0207 17.6199 15.9289 17.9254 15.7533C18.231 15.5777 18.4847 15.3245 18.6609 15.0193C19.4333 13.6807 19.8849 12.1814 19.9804 10.6389C20.0758 9.09644 19.8124 7.55285 19.2109 6.12929C19.1347 5.96705 19.0163 5.82827 18.8681 5.72746C18.7199 5.62666 18.5474 5.56755 18.3685 5.5563C18.1896 5.54506 18.011 5.5821 17.8513 5.66355C17.6917 5.745 17.5568 5.86787 17.4609 6.01929Z" fill="#FF8801"/>
<path d="M8.59099 8.60934C8.21571 8.98462 8.00488 9.49361 8.00488 10.0243C8.00488 10.2871 8.05664 10.5473 8.15721 10.7901C8.25777 11.0329 8.40517 11.2535 8.59099 11.4393C8.77682 11.6252 8.99742 11.7726 9.2402 11.8731C9.48299 11.9737 9.74321 12.0255 10.006 12.0255C10.5367 12.0255 11.0457 11.8146 11.421 11.4393L17.081 2.94934L8.59099 8.60934Z" fill="#FF8801"/>
</svg>
