<svg width="32" height="32" fill="none" xmlns="http://www.w3.org/2000/svg"><circle cx="16" cy="16" r="16" fill="#fff"/><path d="M9.013 6.041c-.78.15-1.4.478-1.961 1.052a3.674 3.674 0 0 0-.983 1.747c-.092.363-.092 1.274 0 1.637.18.711.49 1.258 1.02 1.782.387.382.762.63 1.228.818.47.184.738.23 1.335.23.696 0 .849-.035 1.706-.387.053-.019.718.884.83 1.132.08.169.08.234.08 1.725s0 1.556-.08 1.725c-.112.248-.777 1.15-.83 1.132-.857-.352-1.01-.387-1.706-.387-.78 0-1.315.15-1.95.543-.367.226-.93.788-1.155 1.155-.394.635-.543 1.17-.543 1.95 0 .613.046.869.248 1.373.36.9 1.155 1.687 2.065 2.046.47.184.738.23 1.335.23.78 0 1.315-.15 1.95-.543.367-.226.93-.788 1.155-1.155.394-.635.543-1.17.543-1.95 0-.696-.034-.85-.386-1.706-.02-.054.876-.715 1.109-.819.233-.103.566-.145.906-.11.367.038 1.316.038 1.683 0 .34-.035.673.007.906.11.092.043.386.234.646.425.371.272.474.363.451.413-.305.7-.416 1.24-.386 1.859.05.97.41 1.755 1.113 2.447a3.662 3.662 0 0 0 1.729.964c.363.091 1.273.091 1.636 0a3.683 3.683 0 0 0 1.767-.998c.509-.513.822-1.071.998-1.767.092-.363.092-1.273 0-1.637a3.662 3.662 0 0 0-.964-1.728c-.692-.704-1.476-1.063-2.447-1.113-.62-.03-1.159.08-1.859.386-.05.023-.141-.08-.413-.451a5.902 5.902 0 0 1-.424-.646c-.103-.234-.142-.563-.111-.926.038-.394.038-1.25 0-1.644-.03-.364.008-.692.11-.926.104-.233.766-1.128.82-1.109.856.352 1.009.386 1.705.386.78 0 1.315-.149 1.95-.542.367-.226.93-.788 1.155-1.155.394-.635.543-1.17.543-1.95 0-.77-.123-1.228-.509-1.894-.225-.39-.795-.97-1.19-1.212-.638-.394-1.17-.543-1.95-.543s-1.315.15-1.95.543c-.367.226-.929.788-1.155 1.155-.393.635-.543 1.17-.543 1.95 0 .696.035.85.387 1.706.019.054-.884.719-1.132.83-.169.076-.237.08-1.725.08-1.487 0-1.556-.004-1.724-.08-.25-.111-1.152-.776-1.132-.83.351-.857.386-1.01.386-1.706 0-.596-.046-.864-.23-1.334a3.594 3.594 0 0 0-.799-1.212c-.512-.524-1.04-.834-1.736-1.014-.378-.103-1.14-.13-1.522-.057Zm1.366.646c.382.107.642.218.925.406 1.216.795 1.702 2.26 1.208 3.629-.076.206-.13.306-.156.286-.027-.015-.436-.31-.914-.657-.765-.551-.872-.643-.872-.73a.86.86 0 0 0-.043-.227c-.041-.114-.034-.126.238-.416.34-.364.596-.7.692-.922.068-.145.068-.172.019-.222-.05-.05-.077-.05-.222.02-.222.095-.558.351-.921.692-.291.271-.303.279-.417.237-.31-.107-.631-.02-.895.244s-.352.585-.245.895c.042.115.035.127-.237.417-.34.363-.596.7-.692.922-.069.145-.069.172-.02.222.05.05.077.05.223-.02.221-.095.558-.351.921-.692.29-.271.302-.279.417-.237a.862.862 0 0 0 .226.042c.088 0 .18.107.73.868.348.482.643.891.658.918.019.027-.08.08-.287.157-1.37.493-2.834.007-3.63-1.209-.73-1.112-.63-2.6.234-3.621a3.088 3.088 0 0 1 1.76-1.036c.305-.065 1.001-.046 1.3.034Zm12.237 0c.58.16 1.036.417 1.43.815a3.042 3.042 0 0 1 0 4.31 3.04 3.04 0 0 1-2.7.852c-.375-.072-.841-.248-.807-.306.012-.022.31-.432.658-.913.55-.757.643-.868.73-.868.058 0 .157-.02.226-.042.115-.043.126-.035.417.237.363.34.7.596.922.692.145.069.172.069.221.019.05-.05.05-.077-.019-.222-.095-.222-.352-.558-.692-.922-.271-.29-.28-.302-.237-.416.107-.31.02-.631-.245-.895-.264-.264-.585-.352-.895-.245-.114.042-.126.035-.416-.237-.364-.34-.7-.597-.922-.692-.145-.069-.172-.069-.222-.02-.05.05-.05.077.02.223.095.221.351.558.692.921.271.29.279.302.237.417a.858.858 0 0 0-.042.226c0 .088-.108.18-.865.73a75.3 75.3 0 0 1-.914.654c-.06.038-.233-.41-.31-.803a3.044 3.044 0 0 1 .674-2.512 3.088 3.088 0 0 1 1.759-1.037c.305-.065 1.001-.046 1.3.034ZM10.195 18.89c.394.076.841.248.803.31-.015.026-.31.436-.654.913-.55.758-.642.865-.73.865a.856.856 0 0 0-.226.042c-.114.042-.126.034-.417-.237-.363-.34-.7-.597-.921-.692-.146-.07-.172-.07-.222-.02-.05.05-.05.077.019.222.096.222.352.559.692.922.272.29.28.302.237.416-.23.654.486 1.37 1.14 1.14.114-.042.126-.034.416.237.364.34.7.597.922.692.146.07.172.07.222.02.05-.05.05-.077-.02-.222-.095-.222-.351-.559-.691-.922-.272-.29-.28-.302-.238-.417a.858.858 0 0 0 .043-.225c0-.088.11-.18.872-.73.477-.349.887-.647.91-.659.057-.034.233.432.306.807a3.04 3.04 0 0 1-.853 2.7c-1.017 1.018-2.616 1.19-3.805.41a3.054 3.054 0 0 1-1.22-3.607c.493-1.388 1.977-2.24 3.415-1.965Zm12.42.034c.582.16 1.037.417 1.43.815a3.034 3.034 0 0 1 .445 3.747c-.895 1.461-2.834 1.905-4.253.976-1.216-.796-1.702-2.26-1.208-3.63.076-.206.13-.305.156-.286.027.015.436.31.918.658.761.55.868.642.868.73 0 .057.02.157.043.226.041.114.034.126-.25.428-.332.352-.603.723-.695.933-.05.126-.054.153-.004.199.05.05.077.05.222-.02.222-.095.558-.351.922-.691.29-.272.302-.28.416-.238.31.107.631.02.895-.244s.352-.585.245-.895c-.042-.115-.035-.126.237-.417.34-.363.597-.7.692-.921.069-.146.069-.172.02-.222-.047-.05-.073-.046-.2.004-.21.091-.58.363-.933.695-.302.284-.313.291-.428.25a.858.858 0 0 0-.226-.043c-.088 0-.18-.11-.73-.872-.348-.478-.646-.887-.658-.91-.03-.054.413-.226.776-.306.306-.065 1.002-.046 1.3.034Z" fill="#E6780B"/></svg>