<svg width="296" height="29" viewBox="0 0 296 29" fill="none" xmlns="http://www.w3.org/2000/svg">
<path d="M22.8984 28H15.9727L4.79297 8.55859H4.63477C4.68164 9.36719 4.72266 10.1816 4.75781 11.002C4.79297 11.8223 4.82812 12.6426 4.86328 13.4629C4.89844 14.2715 4.93359 15.0859 4.96875 15.9062V28H0.0996094V2.30078H6.97266L18.1348 21.5488H18.2578C18.2344 20.752 18.2051 19.9609 18.1699 19.1758C18.1348 18.3906 18.0996 17.6055 18.0645 16.8203C18.041 16.0352 18.0176 15.25 17.9941 14.4648V2.30078H22.8984V28ZM211.477 14.9043C211.477 17.7988 210.92 20.2188 209.807 22.1641C208.705 24.0977 207.105 25.5566 205.008 26.541C202.91 27.5137 200.385 28 197.432 28H190.154V2.30078H198.223C200.918 2.30078 203.256 2.78125 205.236 3.74219C207.217 4.69141 208.752 6.10352 209.842 7.97852C210.932 9.8418 211.477 12.1504 211.477 14.9043ZM205.816 15.0449C205.816 13.1465 205.535 11.5879 204.973 10.3691C204.422 9.13867 203.602 8.23047 202.512 7.64453C201.434 7.05859 200.098 6.76562 198.504 6.76562H195.604V23.5H197.941C200.602 23.5 202.576 22.791 203.865 21.373C205.166 19.9551 205.816 17.8457 205.816 15.0449Z" fill="#FF8801"/>
<path d="M46.8223 18.1387C46.8223 19.7793 46.5996 21.2324 46.1543 22.498C45.7207 23.7637 45.082 24.8359 44.2383 25.7148C43.4062 26.582 42.3984 27.2383 41.2148 27.6836C40.043 28.1289 38.7188 28.3516 37.2422 28.3516C35.8594 28.3516 34.5879 28.1289 33.4277 27.6836C32.2793 27.2383 31.2773 26.582 30.4219 25.7148C29.5781 24.8359 28.9219 23.7637 28.4531 22.498C27.9961 21.2324 27.7676 19.7793 27.7676 18.1387C27.7676 15.959 28.1543 14.1133 28.9277 12.6016C29.7012 11.0898 30.8027 9.94141 32.2324 9.15625C33.6621 8.37109 35.3672 7.97852 37.3477 7.97852C39.1875 7.97852 40.8164 8.37109 42.2344 9.15625C43.6641 9.94141 44.7832 11.0898 45.5918 12.6016C46.4121 14.1133 46.8223 15.959 46.8223 18.1387ZM33.2344 18.1387C33.2344 19.4277 33.375 20.5117 33.6562 21.3906C33.9375 22.2695 34.377 22.9316 34.9746 23.377C35.5723 23.8223 36.3516 24.0449 37.3125 24.0449C38.2617 24.0449 39.0293 23.8223 39.6152 23.377C40.2129 22.9316 40.6465 22.2695 40.916 21.3906C41.1973 20.5117 41.3379 19.4277 41.3379 18.1387C41.3379 16.8379 41.1973 15.7598 40.916 14.9043C40.6465 14.0371 40.2129 13.3867 39.6152 12.9531C39.0176 12.5195 38.2383 12.3027 37.2773 12.3027C35.8594 12.3027 34.8281 12.7891 34.1836 13.7617C33.5508 14.7344 33.2344 16.1934 33.2344 18.1387ZM59.5312 24.0801C60.1172 24.0801 60.6855 24.0215 61.2363 23.9043C61.7988 23.7871 62.3555 23.6406 62.9062 23.4648V27.4551C62.332 27.7129 61.6172 27.9238 60.7617 28.0879C59.918 28.2637 58.9922 28.3516 57.9844 28.3516C56.8125 28.3516 55.7578 28.1641 54.8203 27.7891C53.8945 27.4023 53.1621 26.7402 52.623 25.8027C52.0957 24.8535 51.832 23.5352 51.832 21.8477V12.373H49.2656V10.1055L52.2188 8.3125L53.7656 4.16406H57.1934V8.34766H62.6953V12.373H57.1934V21.8477C57.1934 22.5977 57.4043 23.1602 57.8262 23.5352C58.2598 23.8984 58.8281 24.0801 59.5312 24.0801ZM84.7559 18.1387C84.7559 19.7793 84.5332 21.2324 84.0879 22.498C83.6543 23.7637 83.0156 24.8359 82.1719 25.7148C81.3398 26.582 80.332 27.2383 79.1484 27.6836C77.9766 28.1289 76.6523 28.3516 75.1758 28.3516C73.793 28.3516 72.5215 28.1289 71.3613 27.6836C70.2129 27.2383 69.2109 26.582 68.3555 25.7148C67.5117 24.8359 66.8555 23.7637 66.3867 22.498C65.9297 21.2324 65.7012 19.7793 65.7012 18.1387C65.7012 15.959 66.0879 14.1133 66.8613 12.6016C67.6348 11.0898 68.7363 9.94141 70.166 9.15625C71.5957 8.37109 73.3008 7.97852 75.2812 7.97852C77.1211 7.97852 78.75 8.37109 80.168 9.15625C81.5977 9.94141 82.7168 11.0898 83.5254 12.6016C84.3457 14.1133 84.7559 15.959 84.7559 18.1387ZM71.168 18.1387C71.168 19.4277 71.3086 20.5117 71.5898 21.3906C71.8711 22.2695 72.3105 22.9316 72.9082 23.377C73.5059 23.8223 74.2852 24.0449 75.2461 24.0449C76.1953 24.0449 76.9629 23.8223 77.5488 23.377C78.1465 22.9316 78.5801 22.2695 78.8496 21.3906C79.1309 20.5117 79.2715 19.4277 79.2715 18.1387C79.2715 16.8379 79.1309 15.7598 78.8496 14.9043C78.5801 14.0371 78.1465 13.3867 77.5488 12.9531C76.9512 12.5195 76.1719 12.3027 75.2109 12.3027C73.793 12.3027 72.7617 12.7891 72.1172 13.7617C71.4844 14.7344 71.168 16.1934 71.168 18.1387ZM100.154 7.97852C100.424 7.97852 100.734 7.99609 101.086 8.03125C101.449 8.05469 101.742 8.08984 101.965 8.13672L101.561 13.1641C101.385 13.1055 101.133 13.0645 100.805 13.041C100.488 13.0059 100.213 12.9883 99.9785 12.9883C99.2871 12.9883 98.6133 13.0762 97.957 13.252C97.3125 13.4277 96.7324 13.7148 96.2168 14.1133C95.7012 14.5 95.291 15.0156 94.9863 15.6602C94.6934 16.293 94.5469 17.0723 94.5469 17.998V28H89.1855V8.34766H93.2461L94.0371 11.6523H94.3008C94.6875 10.9844 95.168 10.375 95.7422 9.82422C96.3281 9.26172 96.9902 8.81641 97.7285 8.48828C98.4785 8.14844 99.2871 7.97852 100.154 7.97852ZM110.895 8.34766V28H105.533V8.34766H110.895ZM108.223 0.648438C109.02 0.648438 109.705 0.835938 110.279 1.21094C110.854 1.57422 111.141 2.25977 111.141 3.26758C111.141 4.26367 110.854 4.95508 110.279 5.3418C109.705 5.7168 109.02 5.9043 108.223 5.9043C107.414 5.9043 106.723 5.7168 106.148 5.3418C105.586 4.95508 105.305 4.26367 105.305 3.26758C105.305 2.25977 105.586 1.57422 106.148 1.21094C106.723 0.835938 107.414 0.648438 108.223 0.648438ZM134.396 18.1387C134.396 19.7793 134.174 21.2324 133.729 22.498C133.295 23.7637 132.656 24.8359 131.812 25.7148C130.98 26.582 129.973 27.2383 128.789 27.6836C127.617 28.1289 126.293 28.3516 124.816 28.3516C123.434 28.3516 122.162 28.1289 121.002 27.6836C119.854 27.2383 118.852 26.582 117.996 25.7148C117.152 24.8359 116.496 23.7637 116.027 22.498C115.57 21.2324 115.342 19.7793 115.342 18.1387C115.342 15.959 115.729 14.1133 116.502 12.6016C117.275 11.0898 118.377 9.94141 119.807 9.15625C121.236 8.37109 122.941 7.97852 124.922 7.97852C126.762 7.97852 128.391 8.37109 129.809 9.15625C131.238 9.94141 132.357 11.0898 133.166 12.6016C133.986 14.1133 134.396 15.959 134.396 18.1387ZM120.809 18.1387C120.809 19.4277 120.949 20.5117 121.23 21.3906C121.512 22.2695 121.951 22.9316 122.549 23.377C123.146 23.8223 123.926 24.0449 124.887 24.0449C125.836 24.0449 126.604 23.8223 127.189 23.377C127.787 22.9316 128.221 22.2695 128.49 21.3906C128.771 20.5117 128.912 19.4277 128.912 18.1387C128.912 16.8379 128.771 15.7598 128.49 14.9043C128.221 14.0371 127.787 13.3867 127.189 12.9531C126.592 12.5195 125.812 12.3027 124.852 12.3027C123.434 12.3027 122.402 12.7891 121.758 13.7617C121.125 14.7344 120.809 16.1934 120.809 18.1387ZM156.861 8.34766V28H152.748L152.027 25.4863H151.746C151.324 26.1543 150.797 26.6992 150.164 27.1211C149.531 27.543 148.834 27.8535 148.072 28.0527C147.311 28.252 146.52 28.3516 145.699 28.3516C144.293 28.3516 143.068 28.1055 142.025 27.6133C140.982 27.1094 140.168 26.3301 139.582 25.2754C139.008 24.2207 138.721 22.8496 138.721 21.1621V8.34766H144.082V19.8262C144.082 21.2324 144.334 22.293 144.838 23.0078C145.342 23.7227 146.145 24.0801 147.246 24.0801C148.336 24.0801 149.191 23.834 149.812 23.3418C150.434 22.8379 150.867 22.1055 151.113 21.1445C151.371 20.1719 151.5 18.9883 151.5 17.5938V8.34766H156.861ZM176.197 22.1641C176.197 23.5 175.881 24.6309 175.248 25.5566C174.627 26.4707 173.695 27.168 172.453 27.6484C171.211 28.1172 169.664 28.3516 167.812 28.3516C166.441 28.3516 165.264 28.2637 164.279 28.0879C163.307 27.9121 162.322 27.6191 161.326 27.209V22.7793C162.393 23.2598 163.535 23.6582 164.754 23.9746C165.984 24.2793 167.062 24.4316 167.988 24.4316C169.031 24.4316 169.775 24.2793 170.221 23.9746C170.678 23.6582 170.906 23.248 170.906 22.7441C170.906 22.416 170.812 22.123 170.625 21.8652C170.449 21.5957 170.062 21.2969 169.465 20.9688C168.867 20.6289 167.93 20.1895 166.652 19.6504C165.422 19.1348 164.408 18.6133 163.611 18.0859C162.826 17.5586 162.24 16.9375 161.854 16.2227C161.479 15.4961 161.291 14.5762 161.291 13.4629C161.291 11.6465 161.994 10.2812 163.4 9.36719C164.818 8.44141 166.711 7.97852 169.078 7.97852C170.297 7.97852 171.457 8.10156 172.559 8.34766C173.672 8.59375 174.814 8.98633 175.986 9.52539L174.369 13.3926C173.396 12.9707 172.477 12.625 171.609 12.3555C170.754 12.0859 169.881 11.9512 168.99 11.9512C168.205 11.9512 167.613 12.0566 167.215 12.2676C166.816 12.4785 166.617 12.8008 166.617 13.2344C166.617 13.5508 166.717 13.832 166.916 14.0781C167.127 14.3242 167.525 14.5996 168.111 14.9043C168.709 15.1973 169.582 15.5781 170.73 16.0469C171.844 16.5039 172.811 16.9844 173.631 17.4883C174.451 17.9805 175.084 18.5957 175.529 19.334C175.975 20.0605 176.197 21.0039 176.197 22.1641ZM227.35 7.97852C227.619 7.97852 227.93 7.99609 228.281 8.03125C228.645 8.05469 228.938 8.08984 229.16 8.13672L228.756 13.1641C228.58 13.1055 228.328 13.0645 228 13.041C227.684 13.0059 227.408 12.9883 227.174 12.9883C226.482 12.9883 225.809 13.0762 225.152 13.252C224.508 13.4277 223.928 13.7148 223.412 14.1133C222.896 14.5 222.486 15.0156 222.182 15.6602C221.889 16.293 221.742 17.0723 221.742 17.998V28H216.381V8.34766H220.441L221.232 11.6523H221.496C221.883 10.9844 222.363 10.375 222.938 9.82422C223.523 9.26172 224.186 8.81641 224.924 8.48828C225.674 8.14844 226.482 7.97852 227.35 7.97852ZM250.588 18.1387C250.588 19.7793 250.365 21.2324 249.92 22.498C249.486 23.7637 248.848 24.8359 248.004 25.7148C247.172 26.582 246.164 27.2383 244.98 27.6836C243.809 28.1289 242.484 28.3516 241.008 28.3516C239.625 28.3516 238.354 28.1289 237.193 27.6836C236.045 27.2383 235.043 26.582 234.188 25.7148C233.344 24.8359 232.688 23.7637 232.219 22.498C231.762 21.2324 231.533 19.7793 231.533 18.1387C231.533 15.959 231.92 14.1133 232.693 12.6016C233.467 11.0898 234.568 9.94141 235.998 9.15625C237.428 8.37109 239.133 7.97852 241.113 7.97852C242.953 7.97852 244.582 8.37109 246 9.15625C247.43 9.94141 248.549 11.0898 249.357 12.6016C250.178 14.1133 250.588 15.959 250.588 18.1387ZM237 18.1387C237 19.4277 237.141 20.5117 237.422 21.3906C237.703 22.2695 238.143 22.9316 238.74 23.377C239.338 23.8223 240.117 24.0449 241.078 24.0449C242.027 24.0449 242.795 23.8223 243.381 23.377C243.979 22.9316 244.412 22.2695 244.682 21.3906C244.963 20.5117 245.104 19.4277 245.104 18.1387C245.104 16.8379 244.963 15.7598 244.682 14.9043C244.412 14.0371 243.979 13.3867 243.381 12.9531C242.783 12.5195 242.004 12.3027 241.043 12.3027C239.625 12.3027 238.594 12.7891 237.949 13.7617C237.316 14.7344 237 16.1934 237 18.1387ZM266.18 7.97852C268.277 7.97852 269.965 8.55273 271.242 9.70117C272.52 10.8379 273.158 12.666 273.158 15.1855V28H267.797V16.5215C267.797 15.1152 267.539 14.0547 267.023 13.3398C266.52 12.625 265.723 12.2676 264.633 12.2676C262.992 12.2676 261.873 12.8242 261.275 13.9375C260.678 15.0508 260.379 16.6562 260.379 18.7539V28H255.018V8.34766H259.113L259.834 10.8613H260.133C260.555 10.1816 261.076 9.63086 261.697 9.20898C262.33 8.78711 263.027 8.47656 263.789 8.27734C264.562 8.07813 265.359 7.97852 266.18 7.97852ZM286.781 7.97852C288.598 7.97852 290.162 8.33008 291.475 9.0332C292.787 9.72461 293.801 10.7324 294.516 12.0566C295.23 13.3809 295.588 14.998 295.588 16.9082V19.5098H282.914C282.973 21.0215 283.424 22.2109 284.268 23.0781C285.123 23.9336 286.307 24.3613 287.818 24.3613C289.072 24.3613 290.221 24.2324 291.264 23.9746C292.307 23.7168 293.379 23.3301 294.48 22.8145V26.9629C293.508 27.4434 292.488 27.7949 291.422 28.0176C290.367 28.2402 289.084 28.3516 287.572 28.3516C285.604 28.3516 283.857 27.9883 282.334 27.2617C280.822 26.5352 279.633 25.4277 278.766 23.9395C277.91 22.4512 277.482 20.5762 277.482 18.3145C277.482 16.0176 277.869 14.1074 278.643 12.584C279.428 11.0488 280.518 9.90039 281.912 9.13867C283.307 8.36523 284.93 7.97852 286.781 7.97852ZM286.816 11.793C285.773 11.793 284.906 12.127 284.215 12.7949C283.535 13.4629 283.143 14.5117 283.037 15.9414H290.561C290.549 15.1445 290.402 14.4355 290.121 13.8145C289.852 13.1934 289.441 12.7012 288.891 12.3379C288.352 11.9746 287.66 11.793 286.816 11.793Z" fill="white"/>
</svg>
